<svg width="34" height="34" viewBox="0 0 34 34" fill="none" xmlns="http://www.w3.org/2000/svg">
<path d="M23.3769 10.619C22.5475 9.78574 21.5597 9.12502 20.4711 8.67537C19.3825 8.22573 18.2148 7.99616 17.0362 8.00005C12.0975 8.00005 8.07236 12.005 8.07236 16.919C8.07236 18.494 8.48844 20.024 9.26633 21.374L8 26L12.7487 24.758C14.0603 25.469 15.5347 25.847 17.0362 25.847C21.9749 25.847 26 21.842 26 16.928C26 14.543 25.0683 12.302 23.3769 10.619ZM17.0362 24.335C15.6975 24.335 14.3859 23.975 13.2372 23.3L12.9658 23.138L10.1437 23.876L10.8945 21.14L10.7136 20.861C9.96964 19.6794 9.57471 18.3134 9.57387 16.919C9.57387 12.833 12.9206 9.50304 17.0271 9.50304C19.0171 9.50304 20.8894 10.277 22.2915 11.681C22.9858 12.3685 23.536 13.1863 23.9102 14.087C24.2844 14.9877 24.4752 15.9534 24.4714 16.928C24.4894 21.014 21.1427 24.335 17.0362 24.335ZM21.1246 18.791C20.8985 18.683 19.795 18.143 19.596 18.062C19.3879 17.99 19.2432 17.954 19.0894 18.17C18.9357 18.395 18.5106 18.899 18.3839 19.043C18.2573 19.196 18.1216 19.214 17.8955 19.097C17.6693 18.989 16.9457 18.746 16.0955 17.99C15.4261 17.396 14.9829 16.667 14.8472 16.442C14.7206 16.217 14.8291 16.1 14.9467 15.983C15.0462 15.884 15.1729 15.722 15.2814 15.596C15.3899 15.47 15.4352 15.371 15.5075 15.227C15.5799 15.074 15.5437 14.948 15.4894 14.84C15.4352 14.732 14.9829 13.634 14.802 13.184C14.6211 12.752 14.4312 12.806 14.2955 12.797H13.8613C13.7075 12.797 13.4724 12.851 13.2643 13.076C13.0653 13.301 12.4864 13.841 12.4864 14.939C12.4864 16.037 13.2915 17.099 13.4 17.243C13.5085 17.396 14.9829 19.646 17.2261 20.609C17.7598 20.843 18.1759 20.978 18.5015 21.077C19.0352 21.248 19.5236 21.221 19.9126 21.167C20.3467 21.104 21.2422 20.627 21.4231 20.105C21.6131 19.583 21.6131 19.142 21.5497 19.043C21.4864 18.944 21.3508 18.899 21.1246 18.791Z" fill="white"/>
</svg>
