<svg width="34" height="34" viewBox="0 0 34 34" fill="none" xmlns="http://www.w3.org/2000/svg">
<rect width="34" height="34" rx="17" fill="#062989"/>
<path d="M24.0667 25C22.2148 25 20.3852 24.5964 18.5778 23.7893C16.7704 22.9822 15.1259 21.8376 13.6444 20.3556C12.163 18.8735 11.0187 17.229 10.2116 15.4222C9.40444 13.6154 9.00059 11.7858 9 9.93333C9 9.66667 9.08889 9.44444 9.26667 9.26667C9.44444 9.08889 9.66667 9 9.93333 9H13.5333C13.7407 9 13.9259 9.07052 14.0889 9.21156C14.2519 9.35259 14.3481 9.51911 14.3778 9.71111L14.9556 12.8222C14.9852 13.0593 14.9778 13.2593 14.9333 13.4222C14.8889 13.5852 14.8074 13.7259 14.6889 13.8444L12.5333 16.0222C12.8296 16.5704 13.1813 17.0999 13.5884 17.6107C13.9956 18.1215 14.4439 18.6142 14.9333 19.0889C15.3926 19.5481 15.8741 19.9742 16.3778 20.3671C16.8815 20.76 17.4148 21.1191 17.9778 21.4444L20.0667 19.3556C20.2 19.2222 20.3742 19.1224 20.5893 19.056C20.8044 18.9896 21.0154 18.971 21.2222 19L24.2889 19.6222C24.4963 19.6815 24.6667 19.789 24.8 19.9449C24.9333 20.1007 25 20.2747 25 20.4667V24.0667C25 24.3333 24.9111 24.5556 24.7333 24.7333C24.5556 24.9111 24.3333 25 24.0667 25Z" fill="white"/>
</svg>
