<?xml version="1.0" encoding="UTF-8"?>
<svg id="Layer_2" data-name="Layer 2" xmlns="http://www.w3.org/2000/svg" viewBox="0 0 1775.26 1023.14">
  <defs>
    <style>
      .cls-1 {
        fill: #393130;
      }
    </style>
  </defs>
  <g id="Layer_1-2" data-name="Layer 1">
    <g>
      <path class="cls-1" d="M215,590.13c-6.03-20.82-20.16-38.35-39.21-48.68-4.23-2.3-9.7-4.73-14.15-6.54,34.12-25.31,42.61-67.42,17.15-102.95-26.11-36.44-73.88-34.69-114.26-34.71H0v304.95l69.03.06c50.77.1,104.63,3.26,135.66-45.31,12.24-21.62,17.27-42.16,10.31-66.82ZM83.22,441.2c25.91.26,59.73,2.22,58.92,38.12-.25,10.86-4.98,17.84-12.55,25.15-21.25,16.4-53.4,13.82-79.12,13.79l-.06-77.18,32.81.12ZM152.89,641.87c-26.5,21.19-68.4,16-102.41,15.92.43-26.07-.38-52.27-.12-78.36.06-5.55-.14-10.92.61-16.44,37.21-.09,114.71-8.21,115.82,48.82.24,12.11-5.56,21.74-13.9,30.06Z"/>
      <path class="cls-1" d="M1613.29,397.24l50.01-.03-.04,220.14.02,55.17c.02,6.71.51,22.84-.55,28.74l-1.63.89-20.47.04c-65.63-67.88-134.88-139.66-198.96-208.75,1.09,68.64.13,139.94.09,208.79l-50.61.05.03-304.98,23.22.02,198.87,207.6.02-207.69Z"/>
      <path class="cls-1" d="M1200.35,397.18l-21.54.04-159.83,304.97,55.47.1c15.97-30.72,32.5-61.88,48.03-92.8l79.25.03,54.55-.03,48.96,92.79,55.42-.03-160.31-305.07ZM1191.48,565.15l-45.33-.1c14.05-27.84,28.48-55.49,43.27-82.95,2.99,4,12.24,22.28,14.95,27.54l28.5,55.43-41.39.08Z"/>
      <path class="cls-1" d="M468.14,397.25l50.46-.02-.02,304.97h-16.1s-34.31.03-34.31.03l.03-138.84-151.8-.06.06,138.9-50.32-.06-.04-304.88,50.35-.05-.02,121,151.82.03-.11-121.03Z"/>
      <path class="cls-1" d="M769.04,397.26h50.25s0,43.7,0,43.7l.07,100.83c0,26.24,1.65,62.85-4.32,87.1-4.23,17.73-13.08,34.02-25.66,47.21-43.48,45.25-133.79,42.84-177.41-.39-12.24-12.28-21.07-27.54-25.59-44.28-6.25-24.02-4.42-73.37-4.43-100.07v-134.06s50.54-.04,50.54-.04l-.08,141.18c0,24.48-1.15,50.43,1.7,74.59,3.96,33.62,35.21,51.14,66.63,50.81,80.55-.86,68.32-72.89,68.28-129.36l.02-137.22Z"/>
      <path class="cls-1" d="M851.08,397.25l200.43-.05.06,44.02-75.25-.19.1,186.12.1,75.16-50.9-.09c-.94-86.35-.08-174.63-.04-261.08l-74.53.11.03-43.99Z"/>
      <path class="cls-1" d="M1724.91,397.22h50.27s.08,305.03.08,305.03l-50.35.05v-305.08Z"/>
      <path class="cls-1" d="M1565.34,163.63c1.26,1.13,1.26.89,2.05,2.29-.54,11.98.03,27.27.1,39.64l.56,78.28c.08,15.93-1.66,28.66-1.73,43.18-60.77-52.49-122.28-109.58-182.46-163.4h181.48Z"/>
      <path class="cls-1" d="M1567.59,163.77l182.47-.08-.08,163.32-181.5-161.49-.89-1.76Z"/>
      <path class="cls-1" d="M1387.27.86c3.83.22,9.8.99,13.18-.2,53.96-1.31,112.13-.27,166.35-.25-.05,16.14-1.04,47.91.33,63.01,3.02,29.38-1.96,72.12.46,100.35l.89,1.76-1.09.39c-.79-1.4-.79-1.16-2.05-2.29-9.61-8.26-17.3-15-26.4-23.81-8.87-6.91-21.07-19.09-29.44-26.98-2.68-1.54-21.99-19.37-25.74-22.8l-62.89-58.25c-13.11-12.18-19.08-19.19-33.6-30.92Z"/>
      <path class="cls-1" d="M1675.39.38h73.76s-.09,66.59-.09,66.59c-4.03-2.52-19.05-16.69-23.55-20.78L1675.39.38Z"/>
      <path class="cls-1" d="M1385.93,261.77c3.7,2.06,15.33,13.02,19.42,16.31,16.93,13.64,38.66,32.1,53.31,48.4-23.56.63-49.4.15-73.14.19l.41-64.9Z"/>
      <path class="cls-1" d="M1110.35,814.75l660.66.03-.04,11.79-660.72.04.1-11.86Z"/>
      <path class="cls-1" d="M7.23,814.78l660.77-.06v11.85c-52.77,0-655.84,1.44-659.94-.85-1.77-3.03-1.04-7.23-.84-10.94Z"/>
      <path class="cls-1" d="M1664.99,975.18c-1.7-24.53-22.83-43.13-47.38-41.7-16.12.94-30.49,10.47-37.63,24.94-7.14,14.48-5.95,31.68,3.11,45.04s24.6,20.82,40.69,19.54c24.52-1.95,42.9-23.28,41.21-47.82ZM1624,1010.01c-17.41,2.05-33.19-10.38-35.26-27.78-2.08-17.41,10.34-33.2,27.74-35.29,17.43-2.09,33.25,10.35,35.32,27.77,2.08,17.43-10.37,33.24-27.8,35.3Z"/>
      <path class="cls-1" d="M1247.31,974.18c-2.23-24.63-23.97-42.81-48.61-40.65-24.72,2.18-42.98,24.02-40.75,48.74,2.24,24.72,24.13,42.92,48.84,40.62,24.63-2.29,42.75-24.08,40.52-48.71ZM1206.08,1010.02c-17.42,1.86-33.05-10.75-34.92-28.17-1.87-17.42,10.73-33.06,28.15-34.93,17.43-1.88,33.08,10.73,34.95,28.16,1.87,17.43-10.75,33.07-28.18,34.94Z"/>
      <path class="cls-1" d="M596.7,945.68c-14-12.05-40.55-9.82-58.31-9.73-.18,28.19-.2,56.39-.08,84.58,22.04.22,44.25,3.59,61.5-11.2,14.92-18.48,15.78-47.39-3.11-63.65ZM589.85,1000.58c-11.51,9.33-24.52,8.01-38.59,8.07l-.05-60.35c19.98-.16,43.34.31,46.12,26.05,1.22,11.26-.55,17.34-7.48,26.23Z"/>
      <path class="cls-1" d="M728.67,975.03c15.26-22.42,4.18-37.92-21.66-38.98-6.94-.28-13.94-.18-20.9-.17l-.09,84.66c17.41.21,38.51,3.31,51.21-10.51,8.27-14.61,5.93-26.25-8.56-35ZM719.19,965.6c-7.88,4.39-11.27,3.86-20.16,3.93l-.13-21.46c11.88-.04,30.09-.09,20.29,17.53ZM725.12,1004.23c-8.51,5.46-16.32,4.51-26.15,4.43l.06-27.17c13.98-.1,39.1,1.92,26.09,22.74Z"/>
      <path class="cls-1" d="M947.2,820.68c10.64-.5,19.56-1.2,27.23-10.07,4.4-5.08,6.58-11.72,6.03-18.42-2.39-27.15-45.56-21.93-64.33-21.77-.02,10.55-.97,88.46,1.2,91.9,3.29.34,4.75.82,7.73-.59,6.95-8.65-2.52-39.25,4.76-41.51,10.84,3.66,33.52,40.75,40.19,42.47,3.2-.01,8.7.38,11.35-.91-7.39-10.73-25.14-30.46-34.16-41.1ZM927.32,810.7l-.12-30.27c15.75-.15,55.7-2.06,37.25,25.81-10.33,6.23-24.96,4.62-37.13,4.46Z"/>
      <path class="cls-1" d="M403.09,983.33c9.09-1.32,14.32-2.19,20.34-10.29,3.77-5.13,5.37-11.54,4.45-17.84-3.5-23.72-38.9-19.26-55.92-19.33l-.05,84.64,13.12-.04.02-39.56c6.12,6.9,27.92,37.44,31.25,39.61l15.13.06-28.34-37.25ZM385.14,971.55l-.06-23.32c12.86-.1,38.19-1.31,26.12,19.72-8.56,4.73-16.3,3.68-26.06,3.6Z"/>
      <path class="cls-1" d="M1054.31,935.07c8.01,1.01,20.51,16.87,26.34,23.14l33.72,35.81v-58.06l12.97-.07-.03,84.43c-1.03.2-4.28.36-4.89-.22-18.72-17.62-37.5-38.66-54.94-57.27l.05,57.56-13.32.1c-.15-28.47-.12-56.95.1-85.42Z"/>
      <path class="cls-1" d="M1044.55,771.53c-.33-.59-3.03-1.52-3.74-1.71-15.82,30.59-32.41,61.95-47.6,92.82l12.6.04,14.74-29.47,24.97.11,18.76-.04c4.93,9.6,10.03,19.98,15.13,29.42l12.45-.07c-15.35-29.97-30.98-61.49-47.31-91.1ZM1041.98,823.49l-16.6.08c5.64-10.24,11.26-21.92,16.56-32.45,2.97,2.59,14.79,27.18,17.37,32.38h-17.33Z"/>
      <path class="cls-1" d="M1695.81,935.47c1.2.17,2.66.36,4.37.59,17.36,15.68,40.32,41.83,56.12,57.99l-.05-58.02,13.02-.12-.07,85.13c-8.53-.2-20.21-15.56-26.18-21.96l-33.89-36.19.06,57.64-13.41.03.03-85.09Z"/>
      <path class="cls-1" d="M946.51,935.32c6.68.55,8.09,3.05,12.57,7.78,15.92,16.83,31.66,33.91,47.66,50.65l.16-57.69,12.84-.03c.12,28.57.06,57.14-.17,85.7-8.4-1.73-18.67-15.11-24.88-21.8l-35.13-37.62.14,58.14-13.26.03.07-85.16Z"/>
      <path class="cls-1" d="M115.25,935.93l12.94-.05-.08,84.93c-8.23-.05-19.87-15.33-25.88-21.79-11.18-12.05-22.44-24.03-33.78-35.92l-.03,57.46-13.03.02.08-85.3c8.17.93,21.09,17.28,26.96,23.58l32.85,34.8-.03-57.73Z"/>
      <path class="cls-1" d="M290.88,943.97c-11.08-11-34.75-8.29-50.12-8.09.15,28.24.13,56.47-.04,84.71l13.32-.06c-.07-6.86-1.33-32.15,1.38-36.43l3.56-.41c11.33.11,22.51,1.04,31.54-7.46,4.44-4.13,7.01-9.89,7.13-15.95.06-6.13-2.38-12.02-6.77-16.31ZM280.43,968.25c-9.62,4.8-15.57,3.74-26.43,3.65l.08-23.65c13.18-.08,38.43-1.56,26.35,20Z"/>
      <path class="cls-1" d="M808,839.92l.06-44.55c0-7.2-.51-17,.24-23.79l1.87-1.03c2.92,0,5.94-.42,8.23,1.08,1.38,6.66.81,24.52.8,32.37l-.09,59.33c-5.86-.7-19.78-17.29-24.72-22.54l-43.61-46.39c-.04,17.02,1.07,51.41-.55,66.81l-1.54.97c-4.24.03-6.13.87-8.87-1.11-1.12-9.33-.74-31.07-.62-41.35.18-15.19-.55-35.18.47-49.97.16.05.32.1.47.15,7.68,2.35,59.21,60.77,67.86,70.02Z"/>
      <path class="cls-1" d="M1417.24,967.73c-4.07-8.52-10.91-23.92-15.55-31.45-2.76-.87-2.87-.92-5.74-1.12l-41.43,85.43,14.68-.05,12.26-25.61h18.52s15.61.03,15.61.03l12.54,25.56,14.5-.03-25.39-52.76ZM1397.98,983.04l-10.83-.12,10.83-22.87c3.03,1.71,10.29,18.84,12.17,22.92l-12.17.07Z"/>
      <path class="cls-1" d="M457.88,935.84l51.07.04.09,12.44-38.18-.02v20.67s37.31-.14,37.31-.14l.04,12.4-37.28-.06.05,27.17,37.85.03.06,12.1-51,.09v-84.72Z"/>
      <path class="cls-1" d="M180.73,933.74c15.44-.15,19.85,4.33,29.2,15.76l-10.46,7.53c-6.45-7.5-21.15-18.17-25.6-2.67,1.83,11.16,18.81,16.99,26.54,24.71,21.34,21.35,7.49,43.28-21.05,43.57-.81-.19-1.62-.39-2.43-.6-12.44-3.31-16.74-9.24-22.77-19.64l10.66-6.76c4.71,7.88,10.84,17.22,21.94,13.97,4.38-1.28,7.85-2.53,10.28-6.64,1.88-12.2-18.17-22.08-26.19-28.75-18.39-15.32-13.3-34.58,9.86-40.48Z"/>
      <path class="cls-1" d="M1266.59,935.9l13.89.07,26.29,59.48,27.01-59.51,14.53-.03-9.25,20.22c-5.33,11.6-24.81,56.71-30.54,64.59l-2.45.22c-5.27-4.97-36.84-75.07-39.48-85.04Z"/>
      <path class="cls-1" d="M844.39,770.36c9.45.04,44.84-1.32,51.36,1.31.97,3.17.78,3.07.33,6.42-5.43,4.27-32.18,2.56-40.64,2.46l-.02,27.74c6.32-.05,36.04-.77,40.29.74.93,4.23.83,4.11.32,8.48l-1.81.85-38.88-.13c-.03,13.2.74,28.64.11,41.51-2.77,3.78-6.79,4.79-10.44,1.36-1.15-10.51-.63-23.88-.61-34.69v-56.05Z"/>
      <path class="cls-1" d="M759.21,935.92h14.62c6.29,10.68,13.09,20.97,19.84,31.37,6.69-10.33,13.26-20.94,19.82-31.37h15.12c-6.35,10.9-14.45,23.09-21.26,33.88l-7.03,11.23-.02,39.5-13.15-.03-.03-38.96c-4.14-6.66-26.59-40.63-27.93-45.62Z"/>
      <path class="cls-1" d="M1467.34,936c13.15-.17,26.61-.01,39.77,0v12.29s-20.62.09-20.62.09v67.36c.01,2.33.04,1.63-.66,3.93-3.5,1.83-8.55,1.08-12.69.93v-72.18l-20.35-.08-.06-12.35h14.61Z"/>
      <path class="cls-1" d="M324.66,935.95l13.34-.06.02,84.68-13.49-.02.13-84.6Z"/>
      <path class="cls-1" d="M7.9,935.96h13.11s.08,84.18.08,84.18c-3.16.58-9.76.4-13.26.42l.07-84.6Z"/>
      <path class="cls-1" d="M1532.05,936l13.08.02.08,84.5-13.21.04.05-84.56Z"/>
      <path class="cls-1" d="M899.25,936.1l12.93-.08.09,84.51-13.1.05.08-84.48Z"/>
      <path class="cls-1" d="M703.29,770.45c4.4-.11,6.44-.47,10.55.83,1.35,5.78.84,23.92.84,30.99l-.03,60.4c-3.53.04-8.03.55-11-1-.87-9.57-.47-23.48-.46-33.42l.1-57.8Z"/>
    </g>
  </g>
</svg>