<?xml version="1.0" encoding="UTF-8"?>
<svg id="Layer_2" data-name="Layer 2" xmlns="http://www.w3.org/2000/svg" viewBox="0 0 1894.99 565.39">
  <defs>
    <style>
      .cls-1 {
        fill: #f7c317;
      }

      .cls-2 {
        fill: #0f2c81;
      }

      .cls-3 {
        fill: #a48b3c;
      }

      .cls-4 {
        fill: #c1beb5;
      }
    </style>
  </defs>
  <g id="Layer_1-2" data-name="Layer 1">
    <g>
      <path class="cls-1" d="M98.64,533.59c.11-4.94,3.95-23.21,5.12-29.12,21.16-106.34,86.69-191.88,178.38-249.22C505.82,115.34,838.88,100.46,1097.06,115.77c42.01,2.43,83.95,5.98,125.77,10.67,15.01,1.67,39.4,3.86,53.53,6.91,17.47,1.62,38.95,5.54,56.52,8.3l1.22,2.5c-19.7-2.46-40.41-3.99-60.25-5.74-320.54-23.89-755.59-22.35-1011.27,197.16-70.56,60.58-116.65,125.79-157.94,208-2.9,6.91-6.23,15.78-10.32,21.82,1.36-10.61,2.8-21.21,4.32-31.8Z"/>
      <path class="cls-2" d="M252.42,0c19.2,62.06,38.72,124.02,58.56,185.88,20.75.19,41.91.2,62.63.61-6,3.22-13.81,5.74-20.3,8.1-25.54,9.3-48.69,21.47-72.02,35.36-8.82-28.32-19.85-63.61-30.2-91.14-9.9,26.99-21.24,63.38-29.74,91.19l-91.29.11c23.96,18.25,51.53,37.74,74.55,56.14-35.38,34.7-51.54,59.24-75.29,102.49-1.92,4.23-5.33,9.85-7.69,14.01,1.7-8.2,3.41-15.15,5.59-23.24,6.87-28.27,15.4-50.84,26.64-77.77L0,188.1l190.33.06C210.65,126.62,230.84,60.65,252.42,0Z"/>
      <path class="cls-2" d="M1680.41,241.18c-17.92-14.2-47.78-17.55-69.65-16.05-15.49,1.55-30.25,3.88-44.06,12.08-45.31,26.88-46.43,121.27-6.3,152.73,20.57,16.12,48.31,17.67,73.72,16.68,21.53-2.54,42.7-8.61,56.36-26.56,26.6-34.94,26.11-110.2-10.07-138.88ZM1628.22,376.73c-12.1.39-23.91.1-34.79-6.77-27.62-17.44-26.41-70.89-11.78-96.31,6.9-11.98,19.61-16.03,32.19-18.57,25.12-1.35,47.75,8.61,52.24,35.01,6.27,36.8,5.64,77.43-37.86,86.64Z"/>
      <path class="cls-2" d="M1516.52,298.34c-3.15-33.85-21.93-61.81-56.72-67.81-15.81-2.72-30.13-2.17-46.01-2.17l-60.29.03.02,114.98c0,19.18-.52,41.15.05,60.12l56.9.13c30.58.05,62.24,3.59,85.71-19.51l.67-.68c20.56-25.73,22.62-53.36,19.67-85.09ZM1466.46,361.32c-16.62,16.75-53.5,11.93-76.23,11.87v-113.71c17.86-.21,56.62-3.5,70.55,6.72,22.97,16.85,20.94,73.69,5.68,95.12Z"/>
      <path class="cls-2" d="M1851.98,330.23c13.13-4.32,22.63-10.11,29.03-22.95,7.51-15.05,8.16-33.88,2.26-49.6-4.22-11.25-12.2-19.4-23.28-23.99-21.22-8.78-99.11-5.19-126.2-5.35v175.2s37.08-.02,37.08-.02l-.07-68.93,44.26.02c5.34,9.4,35.24,64.81,40.22,68.84l3.6.34,36.11-.07c-14.03-23.28-30.34-49.54-43.01-73.49ZM1844.37,296.98c-14.04,10.21-54.3,6.76-73.52,6.68l-.03-44.18,40.6-.29c14.12-.05,25.39-.94,35.82,9.41,4.05,11.32,4.57,18.61-2.87,28.38Z"/>
      <path class="cls-2" d="M830.91,268.34c-10.72-44.65-55-39.99-90.28-39.94l-65.41.11v175.04s37.08-.02,37.08-.02l-.05-62.06h59.25c7.26-.34,13.77-.56,20.88-1.92,33.7-6.45,45.79-41.01,38.53-71.21ZM786.01,302.95c-15.67,11.71-53.01,7.91-73.79,7.78v-51.23c20.14-.19,75.52-7.66,79.99,18.51,1.68,9.84.1,17.25-6.2,24.94Z"/>
      <path class="cls-2" d="M1280.71,228.15l36.79.03-.09,175.72h-42.74c-26.02-43.49-50.9-87.92-76.94-131.62-.1,42.84.82,86.36,1.1,129.29l-.22.56c-3.2,2.56-30.7,1.47-36.68,1.44l-.03-175.2h46.89c21.69,39.71,49.69,87.37,73.11,126.14l-1.38-83.82c-.13-8.25-.93-35.99.19-42.53Z"/>
      <path class="cls-2" d="M527,228.97c31.36-2.03,78.55-.53,111.03-.5v30.88c-33.23.57-66.36-.93-99.71.78-21.79,1.11-26.74,30.86-8.79,38.33,10.28,4.28,31.59,2.11,43.54,2.45,19.19.54,41.19-2.55,57.99,9.62,21.68,15.83,22.05,55,7.17,75.57-9.25,12.59-25.69,15.81-40.25,17.37l-111.69.02-.02-31.29c34.64.44,69.71.43,104.35-.53,16.1-.45,21.56-15.78,16.44-29.3-4.2-11.09-23.13-10.45-32.94-10.59-33.09-.35-86.77,7.13-93.61-38.32-5.75-38.21,9.31-57.98,46.49-64.48Z"/>
      <path class="cls-2" d="M1079.48,228.22c16.61-.3,33.77-.1,50.42-.11l.09,30.75c-13.38.19-27.67-.13-41-.11-36.52.05-57.6-1.62-64.28,40.23l104.89.09-.03,30.81-104.72.06c1.81,19.24,4.39,31.62,23.3,40.23,17.16,5.33,62.47,3.58,82.17,3.5v29.84l-44.82.11c-27.92.07-56.37,2.26-78.22-18.8-17.66-17.17-22.93-42.81-23.26-66.26-.53-37.01,10.02-74.08,49.07-85.8,16.53-4.96,29.31-4.39,46.39-4.54Z"/>
      <path class="cls-2" d="M445.06,246.7c.79.22.32.01,1.24.92-30.36,22.83-60.24,46.3-89.62,70.37,4.96,14,10.26,33.47,14.72,48.19,11.82,40.3,23.91,80.53,36.26,120.67-44.07-35.58-92.25-68.47-137.67-102.42-1.96-1.46-4.85.59-6.8,1.48-26.05,14.79-46.66,27.51-71.67,43.71,32.46-41.13,53.75-55.31,95.72-84,13.66,9.26,27.76,19.55,41.31,29.11-5.31-13.96-9.99-33-15.31-48.1,37.25-31.05,87.79-59.92,131.82-79.93Z"/>
      <path class="cls-2" d="M854.94,228.39l36.47-.04v77.35c-.03,29.49-6.87,65.29,31.05,67.44,18.05,1.03,36.54.69,54.57.6l-.05,29.72-41.39.17c-81.39.17-80.84-31.94-80.77-101.19l.12-74.05Z"/>
      <path class="cls-4" d="M1386.11,443.78c-9.54-6.72-19.66-5.37-30.62-4.67l-.07,46.39c13.02.45,21.49,1.99,32.18-6.05,8.83-11.08,11.65-26.42-1.49-35.67ZM1379.52,478.98c-6.78,2.61-10.93,2.38-17.94,2.21-.15-9.75-1.37-26.81.76-36.18.32-1.4,2.85-1.6,4.73-2.13,23.28,1.82,29.31,23.07,12.45,36.1Z"/>
      <path class="cls-4" d="M1111.55,444.52c-9.88-7.37-19.99-6.15-31.48-5.48l-.09,46.45c12.79.47,21.7,1.81,32.4-6.13,8.02-10.69,11.4-25.72-.83-34.84ZM1105.8,477.78c-7.39,3.94-11.4,3.33-19.75,3.43-.15-10.98-.63-24.31.29-35.23.18-2.12.55-1.68,2.76-3.16,6.64.28,12.35.29,17.58,4.86,10.01,8.73,7.8,21.31-.88,30.1Z"/>
      <path class="cls-4" d="M1008.59,463.35c16.88-24.63-.44-26.54-22.45-24.1-.04,6.8-1.17,42.23,1.03,45.72l2.28,1.12c6.11-3.98-.8-16.08,5.73-21.86,10.6-1.99,13.15,10.75,14.85,18l1.04,3.36,2.47.65.85-.99-.05.8c4.08-5.6-1.33-17.85-5.75-22.7ZM992.9,442.98c11.18-.56,22.46,2.62,13.97,15.9-15.04,6.73-18.44-3.72-13.97-15.9Z"/>
      <path class="cls-4" d="M838.93,477.21c-.75-8.52-2.06-31.02,1.01-38.32h1.23c4.42,6.68,3.05,38.7,2.01,47.49l-4.02-.81c-6.25-5.24-20.63-30.94-25.72-39.54.5,7.8,1.97,33.82-1.16,39.65l-2.83.21,1.38.72-1.51-.99c-2.37-5.91-1.22-39.03-1.15-47.35,1.91.2,3.45.45,5.35.75,6.9,5.72,20.03,29.18,25.4,38.19Z"/>
      <path class="cls-4" d="M1253.97,438.47c1.63.11,3.4.34,5.04.5,6.64,5.08,19.94,28.77,25.28,37.19.02-7.41-3.05-36.5,4.14-37.76,2.47,3.75,1.42,41.08,1.39,47.73l-4.25-.41c-6.4-3.63-21.66-31.52-26.3-39.54.11,8.11,1.37,33.62-.91,39.56l-3.02.64c-2.4-6.32-1.39-38.93-1.37-47.91Z"/>
      <path class="cls-4" d="M528.24,438.3c10.62.32,13.17,10.51,18.14,19.33,4.87-8.73,6.16-12.16,13.39-19.19l1.75.24c-.46,6.76-7.84,16.96-11.76,23.01,4.91,7.75,10.5,16.14,14.63,24.25-9.87-.13-13.52-11.73-18.17-19.82-1.29,2.24-2.59,4.48-3.9,6.71-2.36,4-6.62,11.44-11.27,12.64-.98-5.47,8.48-18.24,11.87-23.37-4.95-7.66-9.88-16-14.69-23.8Z"/>
      <path class="cls-4" d="M630.96,438.71c6.93-.17,20.82-1.15,26.32,2.65-3.79,3.27-15.16,2.44-20.24,2.35v15.18c5.37-.05,15.55-1.28,18.8,1.84l-.11,2.01c-2.68,1.6-12.3.56-17.59,1.26l-1.1,1.66v15.12c5.97-.16,15.88-1,20.82,2.22-5.38,3.79-19.95,2.8-26.95,2.65l.04-46.94Z"/>
      <path class="cls-4" d="M915.59,438.71c8.02-.2,18.27-1.13,25.48,2.37l-.55,1.13c-6.44,2.19-12.07,1.63-18.88,1.51l.09,15.17c5.54-.06,14.81-1.09,18.58,2.09-4.18,3.9-13.48,1.41-18.27,3.95l-.41,2.53.02,13.27c5.03-.13,16.52-.87,20.38,2.29-4.98,3.77-19.77,2.82-26.44,2.68v-46.99Z"/>
      <path class="cls-4" d="M763,438.68c8.07-.19,18.82-1.09,26.07,2.44l-.61,1.07c-7,2.17-12.1,1.66-19.42,1.54l-.04,15.11c4.2,0,16.28-1.05,18.66,1.74l-.55,2.41c-5.11,2.55-10.56-.94-17.28,1.25l-.77,2.21v14.3c5.6-.15,16.56-.96,20.99,2.31-5.91,3.71-19.73,2.79-27.08,2.65l.03-47.03Z"/>
      <path class="cls-4" d="M1310.3,438.71c7.54-.19,19.31-1.12,25.71,2.51l-.84,1.07c-6.65,2.1-11.86,1.57-18.82,1.44l.07,15.15c4.16,0,16.21-.68,18.57,1.33l-.13,2.38c-4.59,3.17-11.59-.58-17.8,1.75l-.68,2.23-.04,14.18c4.49-.01,17.87-.97,20.61,2.43-5.77,3.59-19.41,2.64-26.64,2.5v-46.97Z"/>
      <path class="cls-4" d="M1035.08,438.67c7.47-.17,19.49-1.08,25.79,2.53l-.76,1.03c-6.55,2.13-12.16,1.6-19.04,1.48l.03,15.16c5.3-.07,12.93-.53,17.9.59l1.01,2.04-.76,1.08c-4.38,1.52-11.46.89-17.04,1.54l-1.09,1.57-.04,15.07c5.62-.16,16.57-.98,21.01,2.3-5.93,3.71-19.65,2.79-27,2.65v-47.04Z"/>
      <path class="cls-4" d="M1136.95,438.7c7.63-.19,18.98-1.15,25.74,2.49l-.73,1.03c-7,2.15-11.71,1.66-19.02,1.51v15.17c4.79-.02,16.73-1.34,18.95,2.42-3.97,3.35-12.23,1.58-18.3,3.06l-.71,2.08-.1,14.28c5.85-.15,16.21-1,20.95,2.27-5.25,3.79-19.83,2.82-26.71,2.68l-.07-46.99Z"/>
      <path class="cls-4" d="M486.46,438.67c6.97-.16,20.44-1.09,26,2.69-3.42,3.21-15.5,2.44-20.24,2.34v15.18c4.7-.04,16.24-.65,19.22,1.99-5.28,4.12-11.51,1.78-18.53,3.54l-.67,2.06v14.32c4.46-.11,17.86-1.03,20.77,2.36-5.77,3.56-19.37,2.61-26.6,2.46l.05-46.94Z"/>
      <path class="cls-4" d="M882.75,437.93c4.88-.16,9.91-.14,14.28,2.25l.26,1.72c-4.37,4.41-11.36.02-15.83,1.39-21.56,6.65-18.78,42.32,11.54,37.37l2.18-.64,1.51,1.25-.52,2.2c-18.15,13.28-45.21-12.92-31.27-33.58,5.69-8.43,8.1-9.51,17.84-11.96Z"/>
      <path class="cls-4" d="M598.62,437.99c3.97-.07,12.68-.35,14.77,3.35-4.91,5.6-21.65-1.06-26.07,7.08-8.26,15.22-2.7,34.93,18.13,32.48,4.45-.67,3.84-1.33,6.9.42l-.17,1.62c-11.35,8.23-29.81,1.35-33.71-12.47-2.07-7.27-1-15.08,2.96-21.52,4.56-7.31,9.27-9.08,17.18-10.96Z"/>
      <path class="cls-4" d="M1182,438.68c7.47-.16,19.6-1.08,25.88,2.53l-.78,1.01c-6.52,2.12-12.29,1.6-19.15,1.49v15.99c5.72.01,13.28-1.36,18.12,1.16l.98,3.65-19.09.02c.01,4.86.94,17.99-1.28,20.91-3.02.36-1.72.73-4.08-.94-1.43-8.52-.64-35.71-.6-45.82Z"/>
      <path class="cls-4" d="M719.44,437.99c2.92.39,2.93.25,5.51,1.57,1.25,7.16.56,32.76.48,41.17,5.95.08,15.33-1.49,20.2,1.18l1,3.7-27.28.07c-.16-15.9-.12-31.8.09-47.69Z"/>
      <path class="cls-4" d="M676.42,437.99c3.63.59,2.64-.05,5.41,1.8,1.06,8.99.44,30.95.41,40.95,5.94.02,15.64-1.42,20.36,1.28l.97,3.58-27.34.09c-.12-15.9-.05-31.8.2-47.7Z"/>
      <path class="cls-4" d="M1226.93,438.27c3.34.46,3.44-.08,5.69,1.74,1.18,10.93.43,34.08.36,45.92-2.79-.13-3.03.08-5.5-1.07-1.43-8.39-.62-37.08-.55-46.59Z"/>
      <path class="cls-3" d="M1332.88,141.65c7.99,1.28,13.84,2.04,21.51,4.53-5.96-.71-15.05-1.13-20.29-2.03l-1.22-2.5Z"/>
    </g>
  </g>
</svg>